Coordinates
version=1
nRows=26
nColumns=22
inDegrees=yes

Units are S.I. units (second, meters, Newtons, ...)
If the header above contains a line with 'inDegrees', this indicates whether rotational values are in degrees (yes) or radians (no).

endheader
time	pelvis_tilt	pelvis_list	pelvis_rotation	pelvis_tx	pelvis_ty	pelvis_tz	hip_flexion_r	hip_adduction_r	hip_rotation_r	knee_angle_r	ankle_angle_r	subtalar_angle_r	hip_flexion_l	hip_adduction_l	hip_rotation_l	knee_angle_l	ankle_angle_l	subtalar_angle_l	lumbar_extension	lumbar_bending	lumbar_rotation
      5.11000000	      5.75848105	      3.01173001	   -184.38217185	     -0.30121202	      0.86723552	     -0.25102705	     35.30124124	     -1.87830887	      0.11899750	    -20.10062519	      4.26085663	      7.42303261	     -5.26165873	     -2.29776557	     -2.99204128	     -9.58370763	     21.90362801	     -1.05955202	     -3.85406411	      2.97891167	      3.72705446
      5.12000000	      5.75494056	      2.81459845	   -184.16957754	     -0.30843315	      0.86521170	     -0.25171715	     35.02719621	     -2.04695577	      0.62321495	    -17.23403956	      4.14049379	      7.81780670	     -5.66733977	     -2.13424384	     -2.76836859	     -9.76581392	     22.31588799	     -0.97493263	     -3.87037728	      2.88465899	      3.38993941
      5.13000000	      5.75994297	      2.59225645	   -183.93503315	     -0.31579042	      0.86308680	     -0.25240925	     34.74866497	     -2.26959298	      1.05754785	    -14.48679224	      4.02499451	      8.25308328	     -6.08034902	     -1.95376770	     -2.52906544	     -9.93107473	     22.69860725	     -0.85253505	     -3.87104615	      2.76783327	      3.02079337
      5.14000000	      5.75486517	      2.34541581	   -183.67696562	     -0.32331299	      0.86089988	     -0.25310518	     34.45635542	     -2.54486124	      1.35541415	    -11.91094000	      3.92867308	      8.76590676	     -6.52863872	     -1.75789035	     -2.27358718	    -10.07070412	     23.05831227	     -0.67873151	     -3.87454358	      2.62849933	      2.62899593
      5.15000000	      5.75140609	      2.05148571	   -183.40038054	     -0.33096030	      0.85862551	     -0.25382593	     34.19498938	     -2.88051891	      1.50788158	     -9.58605154	      3.86756452	      9.46214350	     -6.99017013	     -1.52614634	     -2.02067477	    -10.19540556	     23.40122095	     -0.42081138	     -3.87159916	      2.43573192	      2.21515420
      5.16000000	      5.73768859	      1.77125325	   -183.09705098	     -0.33881562	      0.85633238	     -0.25459794	     33.92313345	     -3.20970075	      1.44875917	     -7.52620731	      3.81839938	     10.05692273	     -7.51097237	     -1.32833045	     -1.75066841	    -10.25946411	     23.70752617	     -0.15397313	     -3.86914094	      2.25908144	      1.77283486
      5.17000000	      5.73763779	      1.46823580	   -182.78125801	     -0.34683949	      0.85398300	     -0.25544818	     33.70265550	     -3.55053759	      1.23259354	     -5.82231918	      3.79758432	     10.76775901	     -8.05490626	     -1.12758316	     -1.48648261	    -10.27494475	     23.95664990	      0.19082078	     -3.84059926	      2.05420860	      1.31227580
      5.18000000	      5.74142161	      1.16619143	   -182.44854604	     -0.35505107	      0.85162159	     -0.25639050	     33.51664896	     -3.87696177	      0.86475519	     -4.50908288	      3.81629794	     11.44842706	     -8.63861443	     -0.95220294	     -1.20112021	    -10.23704571	     24.15150780	      0.57935851	     -3.79830502	      1.84579011	      0.84946957
      5.19000000	      5.76122536	      0.86712431	   -182.10745396	     -0.36343833	      0.84924853	     -0.25744594	     33.38165870	     -4.18325856	      0.41462995	     -3.61515764	      3.84337053	     12.06361301	     -9.24626761	     -0.80514043	     -0.91396298	    -10.14853907	     24.29165965	      1.01206469	     -3.72783744	      1.63465820	      0.37966285
      5.20000000	      5.79478657	      0.58473923	   -181.76594165	     -0.37198395	      0.84688708	     -0.25861656	     33.29168879	     -4.45769244	     -0.06011817	     -3.13955249	      3.82827098	     12.55692736	     -9.87415393	     -0.69918950	     -0.63627408	    -10.02035827	     24.39746921	      1.48598604	     -3.63572636	      1.43901851	     -0.09404176
      5.21000000	      5.85715729	      0.34162985	   -181.41483828	     -0.38068775	      0.84455192	     -0.25990106	     33.24550500	     -4.68720283	     -0.54430720	     -3.04317891	      3.73768729	     12.80443867	    -10.50281403	     -0.65927346	     -0.34016998	     -9.85600136	     24.42085897	      1.94571563	     -3.50359184	      1.28189279	     -0.57423748
      5.22000000	      5.94951430	      0.13884695	   -181.05053276	     -0.38951026	      0.84226140	     -0.26125624	     33.22042437	     -4.88196477	     -0.98449760	     -3.23832433	      3.48037602	     12.82683994	    -11.10931544	     -0.68118516	     -0.01250541	     -9.68997158	     24.41307713	      2.38954461	     -3.33416836	      1.17011467	     -1.04717299
      5.23000000	      6.08492154	      0.01444864	   -180.68868157	     -0.39847379	      0.84004662	     -0.26271541	     33.20507471	     -4.99636319	     -1.40231585	     -3.62098434	      2.95169598	     12.61077873	    -11.68901005	     -0.80165893	      0.30531560	     -9.50445804	     24.35035634	      2.90468453	     -3.10761052	      1.14326464	     -1.48532224
      5.24000000	      6.24488467	     -0.02777038	   -180.30739279	     -0.40747030	      0.83798479	     -0.26422179	     33.18943955	     -5.04361507	     -1.77491555	     -4.13450650	      2.09340867	     12.20030448	    -12.21283818	     -1.02219449	      0.65220769	     -9.37311376	     24.23750513	      3.33255742	     -2.86033854	      1.21270118	     -1.94420311
      5.25000000	      6.44297665	      0.02518896	   -179.92872989	     -0.41651078	      0.83611230	     -0.26579278	     33.16458155	     -4.99891320	     -2.09917986	     -4.64872177	      0.83134410	     11.62452216	    -12.67183701	     -1.34891632	      0.97036701	     -9.28074103	     24.07537542	      3.75113134	     -2.57102808	      1.39342599	     -2.38630329
      5.26000000	      6.66197164	      0.17789394	   -179.55969600	     -0.42550475	      0.83451598	     -0.26743263	     33.13208234	     -4.85445589	     -2.34239770	     -5.12647304	     -0.82082825	     10.90791275	    -13.04883340	     -1.78208442	      1.28250446	     -9.28147767	     23.86589396	      4.15553417	     -2.27137020	      1.69043509	     -2.80307329
      5.27000000	      6.89687230	      0.44910653	   -179.21273371	     -0.43445328	      0.83325545	     -0.26914770	     33.10469451	     -4.58505741	     -2.53839626	     -5.56687340	     -2.73999005	     10.04485064	    -13.34438546	     -2.33738030	      1.55728969	     -9.37932151	     23.59709186	      4.53891352	     -1.96635304	      2.12804164	     -3.18967839
      5.28000000	      7.13916092	      0.83999424	   -178.90612106	     -0.44334291	      0.83237340	     -0.27095430	     33.10020039	     -4.17865957	     -2.69137815	     -6.01287103	     -4.74799516	      8.98669795	    -13.55676462	     -3.01094112	      1.78203739	     -9.59275775	     23.25256482	      4.90036719	     -1.66622331	      2.70838149	     -3.53075520
      5.29000000	      7.38455895	      1.30673877	   -178.66131126	     -0.45214438	      0.83189690	     -0.27285591	     33.13929659	     -3.66326309	     -2.75799569	     -6.51486092	     -6.65453613	      7.64766875	    -13.69495503	     -3.74826724	      1.99098098	     -9.91249405	     22.82357034	      5.25725397	     -1.38182499	      3.38205570	     -3.80409107
      5.30000000	      7.62533221	      1.84522662	   -178.48702601	     -0.46087998	      0.83184702	     -0.27485701	     33.22718767	     -3.03570844	     -2.77950709	     -7.12332274	     -8.26226292	      6.07664954	    -13.76788973	     -4.54372072	      2.17685770	    -10.34126476	     22.28798183	      5.58101238	     -1.12040209	      4.14491750	     -4.00764073
      5.31000000	      7.86010278	      2.42421756	   -178.39535176	     -0.46955885	      0.83222775	     -0.27696841	     33.36038253	     -2.31657516	     -2.74570065	     -7.85022165	     -9.43347525	      4.33700006	    -13.78550711	     -5.36115067	      2.35438154	    -10.86850162	     21.62108884	      5.86436687	     -0.88557630	      4.95967772	     -4.12953035
      5.32000000	      8.08759196	      3.00489884	   -178.39488715	     -0.47817596	      0.83303446	     -0.27919667	     33.51799842	     -1.53759644	     -2.62795408	     -8.66689137	    -10.13550346	      2.56007379	    -13.75457592	     -6.15583552	      2.54175014	    -11.48606009	     20.80275331	      6.09863982	     -0.68194520	      5.77988814	     -4.15735916
      5.33000000	      8.30489815	      3.55379786	   -178.49041930	     -0.48675305	      0.83424992	     -0.28155910	     33.66656658	     -0.72933137	     -2.39765478	     -9.52610952	    -10.39625997	      0.89519856	    -13.69053463	     -6.89212762	      2.72295199	    -12.17403165	     19.81889224	      6.27953851	     -0.51280483	      6.56509436	     -4.11299345
      5.34000000	      8.50518580	      4.03885004	   -178.67407225	     -0.49529168	      0.83585589	     -0.28403547	     33.75817873	      0.06804767	     -2.07430593	    -10.35333558	    -10.29184415	     -0.52180406	    -13.59689344	     -7.53389414	      2.91694233	    -12.93746719	     18.66015067	      6.41108348	     -0.38695400	      7.27493596	     -3.97445883
      5.35000000	      8.68621379	      4.42734464	   -178.93775364	     -0.50378177	      0.83780269	     -0.28661829	     33.75546319	      0.81310086	     -1.66185656	    -11.07716687	     -9.93291095	     -1.60533161	    -13.46973034	     -8.04783323	      3.09839858	    -13.78064872	     17.34000198	      6.50420994	     -0.30557382	      7.86913573	     -3.76574622
      5.36000000	      8.85834512	      4.69744838	   -179.23698561	     -0.51222633	      0.84004493	     -0.28922028	     33.62651336	      1.45363544	     -1.22399574	    -11.61238261	     -9.45761924	     -2.40442052	    -13.30552240	     -8.41519050	      3.34999402	    -14.66246150	     15.80844545	      6.60121358	     -0.24615811	      8.32200872	     -3.53405380
